<svg width="1200" height="300" viewBox="0 0 1200 300" fill="none" xmlns="http://www.w3.org/2000/svg" role="img" aria-label="Duhan — I build AI, and I get engineering teams to actually use it.">
  <defs>
    <clipPath id="round"><rect width="1200" height="300" rx="18"/></clipPath>
    <linearGradient id="fade" x1="0" y1="0" x2="1" y2="0">
      <stop offset="0.45" stop-color="#0d1117"/>
      <stop offset="1" stop-color="#101720"/>
    </linearGradient>
  </defs>

  <g clip-path="url(#round)">
    <rect width="1200" height="300" fill="url(#fade)"/>

    <g stroke="#4edea3" stroke-width="1" opacity="0.05">
      <path d="M0 60 H1200 M0 120 H1200 M0 180 H1200 M0 240 H1200"/>
      <path d="M300 0 V300 M600 0 V300 M900 0 V300"/>
    </g>

    <g transform="translate(980,150)" opacity="0.9">
      <circle cx="-38" cy="0" r="86" fill="none" stroke="#4edea3" stroke-width="2" opacity="0.30"/>
      <circle cx="38" cy="0" r="86" fill="none" stroke="#4edea3" stroke-width="2" opacity="0.30"/>
      <path d="M-38 0 L38 0 L0 -66 Z" fill="#4edea3" fill-opacity="0.12" stroke="#4edea3" stroke-width="3" stroke-linejoin="round" opacity="0.65"/>
      <circle cx="-38" cy="0" r="4.5" fill="#4edea3"/>
      <circle cx="38" cy="0" r="4.5" fill="#4edea3"/>
      <circle cx="0" cy="-66" r="4.5" fill="#4edea3"/>
    </g>

    <g font-family="Inter, Helvetica, Arial, sans-serif">
      <text x="72" y="92" fill="#4edea3" font-family="ui-monospace, 'SF Mono', Menlo, monospace" font-size="15" letter-spacing="5">APPLIED AI · ADOPTION</text>
      <text x="70" y="158" fill="#f0eeee" font-size="62" font-weight="800" letter-spacing="1">Duhan</text>
      <rect x="72" y="182" width="46" height="3" fill="#4edea3"/>
      <text x="72" y="222" fill="#c3c8c1" font-size="25" font-weight="400">I build AI, and I get engineering teams to actually use it.</text>
      <text x="72" y="258" fill="#8b928a" font-family="ui-monospace, 'SF Mono', Menlo, monospace" font-size="14" letter-spacing="1">Engineering &amp; construction · from the site to the code</text>
    </g>
  </g>
</svg>
